<?xml version="1.0" standalone="no"?>
<!DOCTYPE svg PUBLIC "-//W3C//DTD SVG 20010904//EN"
 "http://www.w3.org/TR/2001/REC-SVG-20010904/DTD/svg10.dtd">
<svg version="1.0" xmlns="http://www.w3.org/2000/svg"
 width="700.000000pt" height="700.000000pt" viewBox="0 0 700.000000 700.000000"
 preserveAspectRatio="xMidYMid meet">
<metadata>
Created by potrace 1.11, written by Peter Selinger 2001-2013
</metadata>
<g transform="translate(0.000000,700.000000) scale(0.100000,-0.100000)"
fill="#000000" stroke="none">
<path d="M2709 6996 c-2 -2 -24 -7 -49 -11 -102 -15 -254 -94 -340 -177 -104
-100 -160 -197 -207 -363 -3 -11 -8 -127 -10 -257 l-5 -238 -727 0 c-734 0
-791 -2 -896 -38 -188 -63 -359 -228 -428 -413 -47 -124 -47 -119 -47 -1266
l0 -1083 1575 0 1575 0 0 350 0 350 350 0 350 0 0 -350 0 -350 1575 0 1576 0
-4 1113 c-3 1241 2 1150 -74 1302 -92 185 -282 333 -477 372 -17 3 -371 8
-786 10 -414 2 -755 5 -756 6 -1 1 -4 110 -7 242 -4 203 -7 249 -24 301 -69
210 -211 368 -403 449 -127 53 -142 54 -981 54 -427 1 -778 -1 -780 -3z m1491
-871 l0 -175 -700 0 -700 0 0 175 0 175 700 0 700 0 0 -175z"/>
<path d="M353 1693 c1 -610 6 -1124 11 -1143 34 -148 133 -303 256 -402 55
-44 164 -99 245 -124 58 -18 155 -19 2630 -19 2464 0 2573 1 2635 18 254 73
438 265 507 532 4 17 9 528 10 1138 l3 1107 -1400 0 -1400 0 0 -350 0 -350
-350 0 -350 0 0 350 0 350 -1400 0 -1400 0 3 -1107z"/>
</g>
</svg>
